<svg width="67" height="122" viewBox="0 0 67 122" fill="none" xmlns="http://www.w3.org/2000/svg">
<path d="M46.0833 54.3969C48.2195 54.3967 50.2751 55.4251 51.8293 57.2716C53.3836 59.1181 54.3191 61.6432 54.4444 64.3301L54.4583 64.9492V100.124H56.5521C58.3583 100.124 59.8462 101.854 60.0249 104.07L60.0417 104.52V110.676C60.0418 113.368 59.2256 115.957 57.7601 117.916C56.2946 119.874 54.2905 121.053 52.158 121.211L51.6667 121.228H23.75C21.6138 121.228 19.5583 120.2 18.004 118.354C16.4498 116.507 15.5143 113.982 15.389 111.295L15.375 110.676V75.5015H10.4896C9.62568 75.502 8.79234 75.0987 8.15082 74.3697C7.5093 73.6407 7.10521 72.6377 7.01675 71.5549L7 71.1047V64.9492C6.99988 62.2576 7.81607 59.6677 9.28158 57.7094C10.7471 55.751 12.7511 54.5723 14.8837 54.4144L15.375 54.3969H46.0833ZM46.0833 61.4317H20.9583V110.676C20.9583 111.609 21.2525 112.504 21.776 113.163C22.2995 113.823 23.0096 114.193 23.75 114.193C24.4904 114.193 25.2005 113.823 25.724 113.163C26.2475 112.504 26.5417 111.609 26.5417 110.676V104.52C26.5417 102.093 28.105 100.124 30.0312 100.124H48.875V64.9492C48.875 64.0163 48.5809 63.1216 48.0573 62.462C47.5338 61.8023 46.8237 61.4317 46.0833 61.4317ZM54.4583 107.159H32.125V110.676C32.125 111.907 31.9575 113.092 31.6504 114.193H51.6667C52.4071 114.193 53.1171 113.823 53.6407 113.163C54.1642 112.504 54.4583 111.609 54.4583 110.676V107.159ZM34.9167 86.0539C35.6571 86.0539 36.3671 86.4244 36.8907 87.0841C37.4142 87.7437 37.7083 88.6384 37.7083 89.5713C37.7083 90.5042 37.4142 91.3989 36.8907 92.0585C36.3671 92.7182 35.6571 93.0887 34.9167 93.0887H29.3333C28.5929 93.0887 27.8829 92.7182 27.3593 92.0585C26.8358 91.3989 26.5417 90.5042 26.5417 89.5713C26.5417 88.6384 26.8358 87.7437 27.3593 87.0841C27.8829 86.4244 28.5929 86.0539 29.3333 86.0539H34.9167ZM40.5 71.9841C41.2404 71.9841 41.9505 72.3547 42.474 73.0143C42.9975 73.674 43.2917 74.5686 43.2917 75.5015C43.2917 76.4344 42.9975 77.3291 42.474 77.9887C41.9505 78.6484 41.2404 79.019 40.5 79.019H29.3333C28.5929 79.019 27.8829 78.6484 27.3593 77.9887C26.8358 77.3291 26.5417 76.4344 26.5417 75.5015C26.5417 74.5686 26.8358 73.674 27.3593 73.0143C27.8829 72.3547 28.5929 71.9841 29.3333 71.9841H40.5ZM15.375 61.4317C14.6912 61.4319 14.0313 61.7482 13.5203 62.3207C13.0093 62.8931 12.6829 63.682 12.6029 64.5376L12.5833 64.9492V68.4666H15.375V61.4317Z" fill="#0A4B75"/>
</svg>
