<svg width="67" height="67" viewBox="0 0 67 67" fill="none" xmlns="http://www.w3.org/2000/svg">
<path d="M25.8229 36.2916C25.8229 39.3764 23.3244 41.875 20.2396 41.875C17.1548 41.875 14.6562 39.3764 14.6562 36.2916C14.6562 33.2069 17.1548 30.7083 20.2396 30.7083C23.3244 30.7083 25.8229 33.2069 25.8229 36.2916Z" fill="#0A4B75"/>
<path fill-rule="evenodd" clip-rule="evenodd" d="M20.2396 39.0833C20.98 39.0833 21.6901 38.7892 22.2136 38.2657C22.7371 37.7421 23.0312 37.032 23.0312 36.2916C23.0312 35.5513 22.7371 34.8412 22.2136 34.3176C21.6901 33.7941 20.98 33.5 20.2396 33.5C19.4992 33.5 18.7891 33.7941 18.2656 34.3176C17.742 34.8412 17.4479 35.5513 17.4479 36.2916C17.4479 37.032 17.742 37.7421 18.2656 38.2657C18.7891 38.7892 19.4992 39.0833 20.2396 39.0833ZM20.2396 41.875C23.3244 41.875 25.8229 39.3764 25.8229 36.2916C25.8229 33.2069 23.3244 30.7083 20.2396 30.7083C17.1548 30.7083 14.6562 33.2069 14.6562 36.2916C14.6562 39.3764 17.1548 41.875 20.2396 41.875Z" fill="#0A4B75"/>
<path d="M8.375 51.0121C8.375 46.7911 16.2796 44.6667 20.2396 44.6667C24.1996 44.6667 32.1042 46.7925 32.1042 51.0107V58.625H8.375V51.0107V51.0121Z" fill="#0A4B75"/>
<path fill-rule="evenodd" clip-rule="evenodd" d="M11.6329 50.2263C11.1918 50.6618 11.1667 50.9116 11.1667 51.0121V55.8334H29.3125V51.0107C29.3125 50.913 29.2874 50.6618 28.8463 50.2263C28.3801 49.7671 27.611 49.2743 26.5571 48.8235C24.4355 47.9148 21.8448 47.4584 20.2396 47.4584C18.6344 47.4584 16.0423 47.9148 13.922 48.8235C12.8682 49.2743 12.0991 49.7671 11.6329 50.2263ZM20.2396 44.6667C16.2796 44.6667 8.375 46.7925 8.375 51.0107V58.625H32.1042V51.0107C32.1042 46.7939 24.1996 44.6667 20.2396 44.6667Z" fill="#0A4B75"/>
<path d="M52.3438 36.2916C52.3438 39.3764 49.8452 41.875 46.7605 41.875C43.6757 41.875 41.1771 39.3764 41.1771 36.2916C41.1771 33.2069 43.6757 30.7083 46.7605 30.7083C49.8452 30.7083 52.3438 33.2069 52.3438 36.2916Z" fill="#0A4B75"/>
<path fill-rule="evenodd" clip-rule="evenodd" d="M46.7605 39.0833C47.5009 39.0833 48.2109 38.7892 48.7345 38.2657C49.258 37.7421 49.5521 37.032 49.5521 36.2916C49.5521 35.5513 49.258 34.8412 48.7345 34.3176C48.2109 33.7941 47.5009 33.5 46.7605 33.5C46.0201 33.5 45.31 33.7941 44.7864 34.3176C44.2629 34.8412 43.9688 35.5513 43.9688 36.2916C43.9688 37.032 44.2629 37.7421 44.7864 38.2657C45.31 38.7892 46.0201 39.0833 46.7605 39.0833ZM46.7605 41.875C49.8452 41.875 52.3438 39.3764 52.3438 36.2916C52.3438 33.2069 49.8452 30.7083 46.7605 30.7083C43.6757 30.7083 41.1771 33.2069 41.1771 36.2916C41.1771 39.3764 43.6757 41.875 46.7605 41.875Z" fill="#0A4B75"/>
<path d="M39.0833 33.5C39.0833 36.5848 36.5848 39.0834 33.5 39.0834C30.4152 39.0834 27.9166 36.5848 27.9166 33.5C27.9166 30.4152 30.4152 27.9167 33.5 27.9167C36.5848 27.9167 39.0833 30.4152 39.0833 33.5Z" fill="#0A4B75"/>
<path fill-rule="evenodd" clip-rule="evenodd" d="M33.5 36.2917C34.2404 36.2917 34.9504 35.9976 35.474 35.474C35.9975 34.9505 36.2916 34.2404 36.2916 33.5C36.2916 32.7596 35.9975 32.0496 35.474 31.526C34.9504 31.0025 34.2404 30.7084 33.5 30.7084C32.7596 30.7084 32.0495 31.0025 31.526 31.526C31.0024 32.0496 30.7083 32.7596 30.7083 33.5C30.7083 34.2404 31.0024 34.9505 31.526 35.474C32.0495 35.9976 32.7596 36.2917 33.5 36.2917ZM33.5 39.0834C36.5848 39.0834 39.0833 36.5848 39.0833 33.5C39.0833 30.4152 36.5848 27.9167 33.5 27.9167C30.4152 27.9167 27.9166 30.4152 27.9166 33.5C27.9166 36.5848 30.4152 39.0834 33.5 39.0834Z" fill="#0A4B75"/>
<path d="M32.1042 17.9127C32.1042 16.1236 31.3935 14.4077 30.1283 13.1425C28.8632 11.8774 27.1473 11.1667 25.3581 11.1667H20.9347C19.1044 11.1637 17.3463 11.8802 16.0394 13.1616C14.7324 14.443 13.9814 16.1867 13.9483 18.0167C13.9151 19.8467 14.6025 21.6164 15.8622 22.9443C17.1218 24.2722 18.8529 25.0519 20.6821 25.1152L20.9375 25.125V27.9167C20.9375 27.9167 32.1042 26.2877 32.1042 17.9127ZM36.2917 15.6836C36.2917 13.7452 37.0617 11.8863 38.4323 10.5156C39.803 9.14501 41.6619 8.375 43.6003 8.375H51.6459C53.4969 8.375 55.272 9.1103 56.5809 10.4192C57.8897 11.728 58.625 13.5032 58.625 15.3542C58.625 17.2052 57.8897 18.9803 56.5809 20.2892C55.272 21.598 53.4969 22.3333 51.6459 22.3333H48.8542V26.5208C48.8542 26.5208 36.2917 24.7565 36.2917 15.6836ZM34.8959 51.0121C34.8959 46.7911 42.8005 44.6667 46.7605 44.6667C50.7204 44.6667 58.625 46.7925 58.625 51.0107V58.625H34.8959V51.0107V51.0121Z" fill="#0A4B75"/>
<path fill-rule="evenodd" clip-rule="evenodd" d="M38.1537 50.2263C37.7126 50.6618 37.6875 50.9116 37.6875 51.0121V55.8333H55.8333V51.0107C55.8333 50.913 55.8082 50.6618 55.3671 50.2263C54.9009 49.767 54.1318 49.2743 53.0779 48.8235C50.9563 47.9148 48.3656 47.4583 46.7604 47.4583C45.1552 47.4583 42.5631 47.9148 40.4429 48.8235C39.389 49.2743 38.6199 49.767 38.1537 50.2263ZM46.7604 44.6667C42.8004 44.6667 34.8958 46.7925 34.8958 51.0107V58.625H58.625V51.0107C58.625 46.7939 50.7204 44.6667 46.7604 44.6667ZM33.5 48.2191C33.5 45.8782 30.9219 44.1809 27.9097 43.134C29.6577 42.308 31.5666 41.8781 33.5 41.875C35.4334 41.8781 37.3422 42.308 39.0903 43.134C36.0781 44.1809 33.5 45.8782 33.5 48.2191Z" fill="#0A4B75"/>
<path fill-rule="evenodd" clip-rule="evenodd" d="M33.5 48.2191C33.5 46.9726 34.2314 45.9076 35.3704 45.0268L35.5672 44.8802C36.5401 44.1739 37.7726 43.5919 39.0903 43.1354C37.7829 42.519 36.3835 42.1206 34.9475 41.956C33.9855 41.8479 33.0145 41.8479 32.0525 41.956C30.6166 42.1201 29.2171 42.5181 27.9097 43.134C29.2259 43.5919 30.4599 44.1739 31.4314 44.8788C31.4984 44.9277 31.564 44.9765 31.6282 45.0268C32.7686 45.9062 33.5 46.9726 33.5 48.2191Z" fill="#0A4B75"/>
</svg>
