<svg width="24" height="24" viewBox="0 0 24 24" fill="none" xmlns="http://www.w3.org/2000/svg">
<path d="M11.9591 2C10.6584 2 9.37047 2.25866 8.16878 2.7612C6.9671 3.26375 5.87522 4.00035 4.95549 4.92893C3.09801 6.8043 2.05449 9.34784 2.05449 12C2.05449 14.6522 3.09801 17.1957 4.95549 19.0711C5.87522 19.9997 6.9671 20.7362 8.16878 21.2388C9.37047 21.7413 10.6584 22 11.9591 22C14.586 22 17.1053 20.9464 18.9628 19.0711C20.8202 17.1957 21.8638 14.6522 21.8638 12C21.8638 10.6868 21.6076 9.38642 21.1098 8.17317C20.6121 6.95991 19.8825 5.85752 18.9628 4.92893C18.043 4.00035 16.9511 3.26375 15.7495 2.7612C14.5478 2.25866 13.2598 2 11.9591 2ZM16.1191 16.2L10.9687 13V7H12.4544V12.2L16.9114 14.9L16.1191 16.2Z" fill="#0A4B75"/>
</svg>
