<svg width="26" height="26" viewBox="0 0 26 26" fill="none" xmlns="http://www.w3.org/2000/svg">
<path d="M13.0601 20.9389C12.8866 20.8784 12.7384 20.7759 12.6341 20.6444C12.5297 20.5128 12.474 20.3582 12.474 20.2V13.8002L1.08404 13.8002C0.832302 13.8002 0.590879 13.716 0.412878 13.5659C0.234875 13.4159 0.134874 13.2124 0.134874 13.0003C0.134874 12.7881 0.234875 12.5846 0.412878 12.4346C0.590879 12.2846 0.832302 12.2003 1.08404 12.2003L12.474 12.2003L12.474 5.8006C12.4738 5.64229 12.5294 5.4875 12.6337 5.35583C12.738 5.22416 12.8863 5.12153 13.0598 5.06093C13.2334 5.00033 13.4243 4.98449 13.6085 5.01541C13.7927 5.04632 13.9619 5.12262 14.0947 5.23462L22.6372 12.4343C22.7254 12.5086 22.7954 12.5968 22.8432 12.6939C22.8909 12.7911 22.9155 12.8952 22.9155 13.0003C22.9155 13.1054 22.8909 13.2095 22.8432 13.3066C22.7954 13.4037 22.7254 13.492 22.6372 13.5663L14.0947 20.7659C13.9619 20.8778 13.7927 20.9539 13.6085 20.9847C13.4244 21.0155 13.2335 20.9996 13.0601 20.9389Z" fill="#2DA1D2"/>
</svg>
