<svg width="67" height="67" viewBox="0 0 67 67" fill="none" xmlns="http://www.w3.org/2000/svg">
<path d="M33.5 11.5156C28.5308 11.5156 23.6731 12.9892 19.5413 15.75C15.4095 18.5107 12.1892 22.4347 10.2875 27.0257C8.38589 31.6167 7.88833 36.6685 8.85778 41.5423C9.82723 46.416 12.2202 50.8929 15.734 54.4067C19.2477 57.9205 23.7246 60.3134 28.5984 61.2829C33.4721 62.2523 38.5239 61.7547 43.1149 59.8531C47.7059 57.9514 51.6299 54.7311 54.3907 50.5993C57.1515 46.4675 58.625 41.6099 58.625 36.6406C58.6174 29.9794 55.9679 23.5932 51.2577 18.883C46.5475 14.1728 40.1612 11.5232 33.5 11.5156ZM33.5 55.4844C29.7731 55.4844 26.1298 54.3792 23.031 52.3086C19.9321 50.2381 17.5169 47.2951 16.0907 43.8518C14.6644 40.4086 14.2912 36.6197 15.0183 32.9644C15.7454 29.3091 17.5401 25.9514 20.1755 23.3161C22.8108 20.6807 26.1684 18.886 29.8238 18.159C33.4791 17.4319 37.268 17.805 40.7112 19.2313C44.1544 20.6575 47.0974 23.0728 49.168 26.1716C51.2386 29.2704 52.3438 32.9137 52.3438 36.6406C52.3382 41.6366 50.3511 46.4264 46.8184 49.959C43.2857 53.4917 38.496 55.4788 33.5 55.4844ZM43.0501 26.0436C43.3429 26.3354 43.5752 26.6821 43.7337 27.0639C43.8923 27.4456 43.9739 27.8549 43.9739 28.2682C43.9739 28.6816 43.8923 29.0909 43.7337 29.4726C43.5752 29.8544 43.3429 30.2011 43.0501 30.4929L35.722 37.821C35.132 38.411 34.3318 38.7424 33.4974 38.7424C32.663 38.7424 31.8628 38.411 31.2728 37.821C30.6828 37.231 30.3513 36.4308 30.3513 35.5964C30.3513 34.762 30.6828 33.9618 31.2728 33.3718L38.6009 26.0436C38.8927 25.7508 39.2394 25.5185 39.6211 25.36C40.0029 25.2015 40.4122 25.1199 40.8255 25.1199C41.2389 25.1199 41.6482 25.2015 42.0299 25.36C42.4117 25.5185 42.7584 25.7508 43.0501 26.0436ZM24.0781 4.1875C24.0781 3.35455 24.409 2.55572 24.998 1.96674C25.587 1.37776 26.3858 1.04688 27.2188 1.04688H39.7813C40.6142 1.04688 41.413 1.37776 42.002 1.96674C42.591 2.55572 42.9219 3.35455 42.9219 4.1875C42.9219 5.02045 42.591 5.81928 42.002 6.40826C41.413 6.99724 40.6142 7.32812 39.7813 7.32812H27.2188C26.3858 7.32812 25.587 6.99724 24.998 6.40826C24.409 5.81928 24.0781 5.02045 24.0781 4.1875Z" fill="#0A4B75"/>
</svg>
