<svg width="67" height="85" viewBox="0 0 67 85" fill="none" xmlns="http://www.w3.org/2000/svg">
<path fill-rule="evenodd" clip-rule="evenodd" d="M33.4117 46.8986H33.5606C43.8394 46.8986 52.1715 36.4003 52.1715 23.4493C52.1715 10.4982 43.8394 0 33.5606 0H33.4117C23.2018 0.100832 14.9498 10.5616 14.9498 23.4493C14.9498 36.337 23.2018 46.7978 33.4117 46.8986ZM48.3339 25.7942H44.6117C44.5112 27.9351 44.273 29.9916 43.9157 31.9262H46.845C47.6188 30.006 48.1226 27.9313 48.3339 25.7942ZM44.1651 36.6161H42.7413C42.4678 37.4673 42.1644 38.2763 41.8406 39.0431C42.679 38.335 43.4584 37.5219 44.1669 36.6161H44.1651ZM40.0763 31.9262C40.482 30.0573 40.7649 27.9961 40.8821 25.7942H35.4217V31.9262H40.0763ZM35.4217 36.6161H38.6488C38.5055 36.9631 38.3585 37.2961 38.2059 37.6174C37.2753 39.566 36.3132 40.7713 35.4217 41.4537V36.6161ZM31.6995 31.9262V25.7942H26.12C26.2372 27.9961 26.5201 30.0573 26.9258 31.9262H31.6995ZM28.3533 36.6161H31.6995V41.5404C30.7764 40.8768 29.7677 39.6551 28.7962 37.6174C28.6404 37.2894 28.4927 36.9555 28.3533 36.6161ZM23.0864 31.9262C22.718 29.9105 22.4852 27.8592 22.3904 25.7942H18.7873C19.0032 27.975 19.5169 30.0432 20.2762 31.9262H23.0864ZM22.9562 36.6161H24.2589C24.5157 37.4087 24.7949 38.1637 25.0945 38.8813C24.3266 38.2119 23.612 37.4535 22.9562 36.6161ZM44.6117 21.1044C44.5171 19.0393 44.2843 16.988 43.9157 14.9724H46.845C47.6194 16.8923 48.1232 18.9672 48.3339 21.1044H44.6117ZM44.1651 10.2825H42.7413C42.4678 9.43131 42.1644 8.62231 41.8406 7.85552C42.6799 8.56603 43.4597 9.37972 44.1669 10.2825H44.1651ZM35.4217 10.2825H38.6488C38.5094 9.94308 38.3617 9.60915 38.2059 9.28123C37.2753 7.33025 36.3132 6.1273 35.4217 5.44493V10.2825ZM40.0763 14.9724H35.4217V21.1044H40.8821C40.7754 19.0318 40.5055 16.9777 40.0763 14.9724ZM31.6995 5.35816V10.2825H28.3533C28.4966 9.93547 28.6455 9.60249 28.7962 9.28123C29.7659 7.24349 30.7764 6.02412 31.6995 5.35816ZM31.6995 14.9724H26.9258C26.5201 16.8413 26.2372 18.9025 26.12 21.1044H31.6995V14.9724ZM25.0927 8.01731C24.7949 8.73486 24.5157 9.48993 24.2608 10.2825H22.9562C23.6094 9.44538 24.324 8.68796 25.0927 8.01731ZM23.0864 14.9724H20.2762C19.5024 16.8926 18.9986 18.9673 18.7873 21.1044H22.3904C22.4909 18.9611 22.7291 16.9069 23.0864 14.9724ZM5.0823 25.7942C3.15049 25.7379 1.21124 27.2317 0.584056 29.5578C0.427725 30.1394 0.342115 30.8991 0.280699 31.5909C0.215561 32.346 0.165312 33.2534 0.126229 34.2407C0.0455597 36.5013 0.00398583 38.7639 0.00153627 41.0269C-0.0133524 45.759 0.0815632 50.6833 0.217422 52.2099C0.455641 54.8831 1.67651 57.3734 2.73733 59.5401L2.85644 59.7816C3.17841 60.4382 3.49665 61.0924 3.80931 61.7654C5.21257 64.7927 6.73866 66.8328 8.12145 68.683L8.15309 68.7228C8.93102 69.7617 9.65126 70.7278 10.3306 71.8041C9.67156 72.6756 9.3049 73.834 9.30696 75.0377V79.7276C9.30696 80.9714 9.69911 82.1643 10.3972 83.0438C11.0952 83.9234 12.0419 84.4175 13.0291 84.4175H27.9178C28.905 84.4175 29.8517 83.9234 30.5498 83.0438C31.2478 82.1643 31.64 80.9714 31.64 79.7276V75.0377C31.6399 73.8508 31.2827 72.708 30.6403 71.8398C29.9979 70.9717 29.1181 70.4427 28.1784 70.3596C27.9271 67.6958 27.6014 64.0986 27.5716 63.0739C27.5456 62.1922 27.3111 61.3316 27.0915 60.6774C26.861 60.0031 26.5962 59.3483 26.2987 58.717C25.9928 58.0612 25.6649 57.422 25.316 56.8012L25.2434 56.6746L25.2248 56.6394L25.2174 56.6277L25.2136 56.6207L25.195 56.5878L19.1577 46.9971L19.1018 46.9267V46.922L19.0944 46.9127L19.0497 46.8517C18.7722 46.4647 18.5053 46.0659 18.2495 45.6558C17.68 44.7596 17.1836 43.7932 16.768 42.7715C16.3437 41.6741 15.5397 40.6212 14.3058 40.5438C13.2543 40.4735 12.4299 41.177 11.9497 41.7186C11.6853 42.019 11.4441 42.3503 11.2295 42.7082L11.1457 41.2966L11.1364 41.1418C10.954 38.0512 10.7325 34.311 10.0123 31.3165C9.16737 27.8132 7.28954 25.8622 5.08044 25.7966L5.0823 25.7942ZM24.4283 70.3479C24.1863 67.7685 23.8848 64.3988 23.8513 63.2451C23.8446 63.1759 23.8327 63.1076 23.816 63.0411C23.7736 62.8551 23.722 62.6726 23.6615 62.4947C23.4937 62.0108 23.3016 61.5409 23.0864 61.0878C22.8356 60.5499 22.5667 60.0258 22.2806 59.5167L22.2322 59.4299L16.3363 50.0642L16.3028 50.0173C15.9624 49.5425 15.6353 49.0529 15.322 48.5494C14.8205 47.7484 14.3598 46.908 13.9429 46.0333L13.9299 46.0591C13.7624 46.4507 13.6693 46.8095 13.6414 47.044C13.5391 47.8741 13.5912 48.4462 13.6433 48.7558C13.659 48.8547 13.6808 48.9519 13.7084 49.0465V49.0536L17.1179 57.5844L13.9522 60.0208L13.9057 59.9411L13.7773 59.7183C13.1129 58.5637 12.4553 57.403 11.8045 56.2361C10.6749 54.2101 9.32371 51.7245 8.65744 50.2331C8.15867 49.1192 7.92789 47.6443 7.78087 46.31C7.62921 44.7765 7.51439 43.2375 7.43657 41.6952L7.43285 41.6436C7.23929 38.3654 7.0383 35.1247 6.45019 32.6789C6.19336 31.612 5.86209 31.075 5.62387 30.8147C5.45267 30.6129 5.22915 30.4962 4.99482 30.4864C4.48675 30.47 4.14989 30.9132 4.10709 31.0727C4.10337 31.0867 4.08662 31.1665 4.06242 31.34C4.02883 31.5913 4.00152 31.8439 3.98053 32.0974C3.92656 32.7258 3.88004 33.5325 3.84281 34.4752C3.76598 36.664 3.72689 38.8547 3.72557 41.0456C3.70882 45.827 3.81117 50.477 3.91912 51.6869C4.05312 53.1994 4.80127 54.8151 6.02587 57.3218L6.03145 57.3312C6.34783 57.9784 6.68841 58.6748 7.02527 59.4018C8.20333 61.9437 9.47259 63.6484 10.8628 65.5056L10.8945 65.5478C11.9292 66.9313 13.0533 68.4321 14.1141 70.3479H24.4283ZM14.518 45.1305C14.518 45.1305 14.5105 45.1329 14.4975 45.1469C14.5049 45.1425 14.5117 45.137 14.518 45.1305ZM27.9178 79.7276V75.0377H13.0291V79.7276H27.9178ZM66.418 29.5578C65.789 27.2317 63.8516 25.7379 61.9198 25.7966C59.7126 25.8622 57.8347 27.8132 56.9898 31.3165C56.2696 34.311 56.0481 38.0512 55.8657 41.1418L55.8564 41.2966L55.7726 42.7082C55.5493 42.34 55.3074 42.0047 55.0524 41.7186C54.5723 41.1793 53.7496 40.4758 52.6963 40.5415C51.4624 40.6212 50.6584 41.6741 50.2341 42.7692C49.8177 43.7909 49.3208 44.7572 48.7508 45.6534C48.4951 46.0644 48.2282 46.4641 47.9505 46.8517L47.9077 46.9127L47.9003 46.9244L47.8444 46.9971L41.8089 56.5878L41.7885 56.6207L41.7847 56.6277L41.7792 56.6394L41.7587 56.6746C41.3824 57.334 41.0303 58.0147 40.7034 58.7147C40.4053 59.3467 40.1399 60.0023 39.9088 60.6774C39.691 61.3316 39.4565 62.1922 39.4305 63.0739C39.4007 64.0986 39.0769 67.6958 38.8238 70.3596C37.884 70.4427 37.0042 70.9717 36.3618 71.8398C35.7194 72.708 35.3622 73.8508 35.3621 75.0377V79.7276C35.3621 80.9714 35.7543 82.1643 36.4523 83.0438C37.1504 83.9234 38.0971 84.4175 39.0843 84.4175H53.973C54.9602 84.4175 55.9069 83.9234 56.605 83.0438C57.303 82.1643 57.6951 80.9714 57.6951 79.7276V75.0377C57.6958 73.8332 57.3287 72.6744 56.6697 71.8017C57.3508 70.7278 58.0692 69.7617 58.8472 68.7228L58.8788 68.6806C60.2616 66.8328 61.7877 64.7927 63.1909 61.7654C63.5036 61.0924 63.8237 60.4406 64.1438 59.7816L64.2629 59.5401C65.3237 57.3734 66.5446 54.8831 66.7828 52.2099C66.9187 50.6833 67.0136 45.759 66.9987 41.0269C66.9969 38.764 66.9559 36.5013 66.8759 34.2407C66.8442 33.3557 66.7927 32.4721 66.7214 31.5909C66.6618 30.8991 66.5762 30.137 66.418 29.5578ZM52.8898 70.3479C53.9506 68.4321 55.0729 66.9313 56.1095 65.5478L56.1393 65.5056C57.5295 63.6484 58.8006 61.9413 59.9768 59.4018C60.3118 58.6748 60.6524 57.9807 60.9706 57.3312L60.9762 57.3195C62.2027 54.8151 62.949 53.1994 63.083 51.6869C63.1909 50.477 63.2914 45.827 63.2765 41.0456C63.2691 38.6866 63.2337 36.3558 63.1593 34.4752C63.1221 33.5325 63.0755 32.7258 63.0216 32.0974C63.0006 31.8439 62.9733 31.5913 62.9397 31.34C62.9282 31.25 62.9133 31.1608 62.895 31.0727C62.8522 30.9132 62.5154 30.47 62.0091 30.4864C61.7742 30.4957 61.5499 30.6124 61.3782 30.8147C61.14 31.0727 60.8087 31.612 60.5519 32.6789C59.9638 35.1224 59.7628 38.3654 59.5693 41.6436L59.5655 41.6952C59.4725 43.2991 59.3757 44.9171 59.2212 46.31C59.0761 47.6443 58.8434 49.1192 58.3465 50.2354C57.6784 51.7245 56.3273 54.2101 55.1976 56.2384C54.5468 57.4045 53.8892 58.5645 53.2248 59.7183L53.0945 59.9411L53.0499 60.0208L49.8842 57.5821L53.2918 49.0536L53.2937 49.0465C53.3213 48.9519 53.3431 48.8547 53.3588 48.7558C53.4109 48.4462 53.463 47.8741 53.3607 47.044C53.3077 46.6981 53.2102 46.3655 53.0722 46.0591L53.0592 46.0333C52.6014 47.0065 52.097 47.8788 51.682 48.5471C51.3682 49.0515 51.0404 49.5419 50.6993 50.0173L50.664 50.0642L44.7699 59.4299L44.7215 59.5167C44.4355 60.0259 44.1667 60.55 43.9157 61.0878C43.6923 61.5661 43.4876 62.0562 43.3406 62.4947C43.268 62.7128 43.2178 62.8934 43.1861 63.0387C43.1694 63.106 43.1576 63.1751 43.1508 63.2451C43.1173 64.3988 42.8158 67.7708 42.5738 70.3479H52.8898ZM52.4841 45.1305C52.4841 45.1305 52.4916 45.1329 52.5046 45.1469C52.4973 45.1425 52.4904 45.137 52.4841 45.1305ZM39.0843 79.7276V75.0377H53.973V79.7276H39.0843Z" fill="#0A4B75"/>
</svg>
