<svg width="63" height="80" viewBox="0 0 63 80" fill="none" xmlns="http://www.w3.org/2000/svg">
<path d="M62.3886 0C49.8122 0.582275 39.613 4.01063 31.8159 9.29574L27.9203 17.5036L27.2637 12.8245C25.8711 14.0574 24.5784 15.3598 23.3887 16.7231L21.4473 24.228L20.7821 20.0383C15.4087 27.6177 12.7966 36.6712 12.9912 46.0052C19.2401 30.4045 30.4934 17.2367 41.0111 9.17083L42.2956 11.8307C32.3403 19.4652 21.6231 32.0175 15.5689 46.5157H17.1757C19.7904 44.5137 22.3522 42.0424 24.8963 39.2806L20.8937 39.5462L28.0607 35.6998C34.257 28.4319 40.4156 19.8815 47.005 12.6686L43.7703 11.8042L51.2389 8.30158C54.7886 4.88971 58.4829 1.99849 62.3882 0H62.3886ZM4.56843 49.6278V54.6924H22.3438V49.6278H4.56843ZM7.26189 57.8048L2.94515 62.5829L0 76.7345L1.9207 79.3787H25.3471L27.2718 76.7347L24.3266 62.583L20.2412 57.8049H7.26189V57.8048Z" fill="#0A4B75"/>
</svg>
